<svg width="180" height="180" viewBox="0 0 180 180" fill="none" xmlns="http://www.w3.org/2000/svg">
<path d="M89.675 5L157.44 36.9394L174.177 108.706L127.282 166.259H52.0681L5.17313 108.706L21.9098 36.9394L89.675 5Z" fill="#0B335A"/>
<path fill-rule="evenodd" clip-rule="evenodd" d="M152.121 36.5754L93.0372 8.12211C91.1178 7.19782 88.8821 7.19782 86.9628 8.12211L27.8789 36.5754C25.9596 37.4997 24.5657 39.2477 24.0916 41.3245L9.49911 105.258C9.02508 107.335 9.52258 109.515 10.8508 111.181L51.7381 162.452C53.0663 164.117 55.0806 165.087 57.2109 165.087H122.789C124.919 165.087 126.934 164.117 128.262 162.452L169.149 111.181C170.477 109.515 170.975 107.335 170.501 105.258L155.908 41.3245C155.434 39.2477 154.04 37.4997 152.121 36.5754ZM95.6405 2.7163C92.076 0.99976 87.9239 0.999758 84.3595 2.7163L25.2756 31.1696C21.7112 32.8861 19.1224 36.1324 18.2421 39.9894L3.64954 103.923C2.7692 107.78 3.69313 111.828 6.15979 114.922L47.0471 166.193C49.5138 169.286 53.2547 171.087 57.2109 171.087H122.789C126.745 171.087 130.486 169.286 132.953 166.193L173.84 114.922C176.307 111.828 177.231 107.78 176.35 103.923L161.758 39.9894C160.878 36.1324 158.289 32.8861 154.724 31.1696L95.6405 2.7163Z" fill="#E5E7EC"/>
<path d="M39.64 123V52.92H51.16L72.568 112.92C72.44 111.32 72.28 109.368 72.088 107.064C71.96 104.696 71.832 102.232 71.704 99.672C71.64 97.048 71.608 94.584 71.608 92.28V52.92H79.96V123H68.44L47.128 63C47.256 64.536 47.384 66.488 47.512 68.856C47.64 71.16 47.736 73.624 47.8 76.248C47.928 78.808 47.992 81.272 47.992 83.64V123H39.64Z" fill="#E5E7EC"/>
<path d="M114.483 123.96C107.763 123.96 102.483 122.072 98.6425 118.296C94.8025 114.52 92.8825 109.368 92.8825 102.84H101.523C101.523 107.128 102.643 110.456 104.883 112.824C107.187 115.128 110.387 116.28 114.483 116.28C118.579 116.28 121.747 115.128 123.987 112.824C126.291 110.456 127.443 107.128 127.443 102.84V60.792H110.643V52.92H136.083V102.84C136.083 109.368 134.131 114.52 130.227 118.296C126.387 122.072 121.139 123.96 114.483 123.96Z" fill="#E5E7EC"/>
</svg>
