<svg width="224" height="224" viewBox="0 0 224 224" fill="none" xmlns="http://www.w3.org/2000/svg">
<g clip-path="url(#clip0_102_2)">
<path d="M149 124H174V149L149 174H124V149L149 124Z" fill="#0E448C"/>
<path d="M149 174H174V199L149 224H124V199L149 174Z" fill="#08A887"/>
<path d="M224 149C223.999 142.37 221.365 136.011 216.676 131.323C211.988 126.636 205.629 124.002 198.999 124.002C192.369 124.003 186.01 126.637 181.322 131.325C176.634 136.014 174 142.372 174 149.002C174 155.633 176.634 161.991 181.322 166.68C186.01 171.368 192.369 174.002 198.999 174.002C205.629 174.003 211.988 171.369 216.676 166.681C221.365 161.994 223.999 155.635 224 149.005V149Z" fill="#FFD313"/>
<path d="M224 199C223.999 192.37 221.365 186.011 216.676 181.323C211.988 176.636 205.629 174.002 198.999 174.002C192.369 174.003 186.01 176.637 181.322 181.325C176.634 186.014 174 192.372 174 199.002C174 205.633 176.634 211.991 181.322 216.68C186.01 221.368 192.369 224.002 198.999 224.002C205.629 224.003 211.988 221.369 216.676 216.681C221.365 211.994 223.999 205.635 224 199.005V199Z" fill="#F61710"/>
</g>
<g clip-path="url(#clip1_102_2)">
<path d="M100 199V224L50 199V174L100 199Z" fill="#FFD313"/>
<path d="M100 174L50 149L100 124V174Z" fill="#F61710"/>
<path d="M0 149L0 124L50 149V174L0 149Z" fill="#08A887"/>
<path d="M0 199L0 174L50 199V224L0 199Z" fill="#0E448C"/>
</g>
<g clip-path="url(#clip2_102_2)">
<path d="M124 0H149C153.945 0 158.778 1.46622 162.889 4.21326C167 6.96029 170.205 10.8648 172.097 15.4329C173.989 20.0011 174.484 25.0277 173.52 29.8773C172.555 34.7268 170.174 39.1814 166.678 42.6777C163.181 46.174 158.727 48.555 153.877 49.5196C149.028 50.4843 144.001 49.9892 139.433 48.097C134.865 46.2048 130.96 43.0005 128.213 38.8893C125.466 34.778 124 29.9445 124 25V0Z" fill="#08A887"/>
<path d="M174 100H149C144.055 100 139.222 98.5338 135.111 95.7868C131 93.0397 127.795 89.1353 125.903 84.5671C124.011 79.9989 123.516 74.9723 124.48 70.1228C125.445 65.2732 127.826 60.8187 131.322 57.3223C134.819 53.826 139.273 51.445 144.123 50.4804C148.972 49.5157 153.999 50.0108 158.567 51.903C163.135 53.7952 167.04 56.9995 169.787 61.1108C172.534 65.222 174 70.0555 174 75V100Z" fill="#0E448C"/>
<path d="M224 50H199C194.055 50 189.222 48.5338 185.111 45.7868C181 43.0397 177.795 39.1353 175.903 34.5671C174.011 29.9989 173.516 24.9723 174.48 20.1228C175.445 15.2732 177.826 10.8187 181.322 7.32234C184.819 3.82603 189.273 1.44501 194.123 0.480379C198.972 -0.484251 203.999 0.0108321 208.567 1.90302C213.135 3.79521 217.04 6.99953 219.787 11.1108C222.534 15.222 224 20.0555 224 25V50Z" fill="#FFD313"/>
<path d="M224 50V75C224 79.9445 222.534 84.778 219.787 88.8893C217.04 93.0005 213.135 96.2048 208.567 98.097C203.999 99.9892 198.972 100.484 194.123 99.5196C189.273 98.555 184.819 96.174 181.322 92.6777C177.826 89.1814 175.445 84.7268 174.48 79.8773C173.516 75.0277 174.011 70.0011 175.903 65.4329C177.795 60.8648 181 56.9603 185.111 54.2133C189.222 51.4662 194.055 50 199 50H224Z" fill="#F61710"/>
</g>
<g clip-path="url(#clip3_102_2)">
<path d="M50 0L0 0L25 25L0 50H50V0Z" fill="#0E448C"/>
<path d="M0 100H50L25 75L50 50H0L0 100Z" fill="#F61710"/>
<path d="M50 50H100L75 25L100 0L50 0V50Z" fill="#FFD313"/>
<path d="M50 100H100L75 75L100 50H50V100Z" fill="#08A887"/>
</g>
<defs>
<clipPath id="clip0_102_2">
<rect width="100" height="100" fill="white" transform="translate(124 124)"/>
</clipPath>
<clipPath id="clip1_102_2">
<rect width="100" height="100" fill="white" transform="translate(0 124)"/>
</clipPath>
<clipPath id="clip2_102_2">
<rect width="100" height="100" fill="white" transform="translate(124)"/>
</clipPath>
<clipPath id="clip3_102_2">
<rect width="100" height="100" fill="white"/>
</clipPath>
</defs>
</svg>
